:SAMPLES-PER-SECOND 30
:FULLY-SPECIFIED
:DEGREES
52
root  4.63373 40.2321 -5.15564 -28.5475 -15.519 172.044
RightUpLeg  -20.4901 -4.70764 -36.0941
RightLeg  19.5732 6.17894 -1.12414
RightFoot  9.69817 -0.875078 4.33193
RightToes  1.74622e-010 -3.18055e-015 8.94531e-016
Spine  32.7401 -1.09621 -6.75788
Spine1  -24.421 -2.1771 3.43024
HEad  -33.2036 8.81689 -1.06049
LeftShoulder1  0 0 -2.47967e-037
LeftArm  -99.0744 -61.3083 85.1976
LeftForeArm  -5.02542 1.35386 4.42853
LeftHand  -1.86064 -0.264935 25.388
RightShoulder  -2.48481e-017 0 -8.08114e-019
RightArm  -57.5541 68.3092 -4.519
RightForeArm  -42.1456 -1.0506 -8.32723
RightHand  9.48565 -23.6642 -42.0009
LeftUpLeg  -4.74046 -6.01044 36.7423
LeftLeg  9.94518 2.75387 3.84756
LeftFoot  26.9085 0.370481 -0.777491
LeftToes  -1.45516e-011 5.53925e-011 1.30052e-011
53
root  6.14328 40.9051 -5.5442 -29.5606 -21.153 167.481
RightUpLeg  -29.3656 -13.2737 -34.6937
RightLeg  20.5331 6.87815 -0.922707
RightFoot  6.23291 -0.702395 4.1157
RightToes  1.74622e-010 -3.18055e-015 8.94531e-016
Spine  34.8948 -1.88992 1.68734
Spine1  -23.5925 -0.557358 -4.86699
HEad  -33.2462 6.78828 0.0490421
LeftShoulder1  0 0 -2.47967e-037
LeftArm  -79.7588 -60.5194 71.701
LeftForeArm  -16.2658 0.981368 3.14009
LeftHand  -1.88771 0.166774 27.9585
RightShoulder  -2.48481e-017 0 -8.08114e-019
RightArm  -60.4778 66.846 -8.75953
RightForeArm  -43.0186 -2.49133 -8.51586
RightHand  9.41656 -23.6284 -41.7364
LeftUpLeg  1.97081 -8.41403 32.7104
LeftLeg  10.7627 -0.792145 2.24233
LeftFoot  28.5109 0.569301 -1.25417
LeftToes  -1.45516e-011 5.53925e-011 1.30052e-011
54
root  7.72117 41.4761 -6.02464 -30.3671 -24.6543 161.285
RightUpLeg  -37.5117 -23.0367 -30.0184
RightLeg  20.2104 5.77832 -1.35356
RightFoot  3.23531 -0.546467 3.77443
RightToes  1.74622e-010 -3.18055e-015 8.94531e-016
Spine  37.6901 -3.68009 9.42345
Spine1  -21.8495 0.333369 -12.0757
HEad  -33.8653 4.75279 0.587204
LeftShoulder1  0 0 -2.47967e-037
LeftArm  -55.7895 -57.3516 53.5005
LeftForeArm  -25.199 0.42541 1.47885
LeftHand  -1.7968 0.817498 30.4239
RightShoulder  -2.48481e-017 0 -8.08114e-019
RightArm  -62.8184 64.5348 -14.0538
RightForeArm  -44.6873 -4.44943 -8.81598
RightHand  9.23649 -23.5119 -41.1114
LeftUpLeg  6.16408 -9.16281 29.8132
LeftLeg  11.6396 -1.13641 1.64846
LeftFoot  28.98 0.628209 -1.38605
LeftToes  -1.45516e-011 5.53925e-011 1.30052e-011
55
root  9.37634 41.8326 -6.65202 -30.5024 -27.2629 154.379
RightUpLeg  -45.7056 -29.1054 -24.9558
RightLeg  18.2818 4.37405 -1.66432
RightFoot  0.843159 -0.276591 2.27604
RightToes  1.74622e-010 -3.18055e-015 8.94531e-016
Spine  40.6082 -5.67938 14.9184
Spine1  -19.5608 0.953889 -16.7595
HEad  -35.4539 2.56784 0.225941
LeftShoulder1  0 0 -2.47967e-037
LeftArm  -32.4534 -49.0914 36.766
LeftForeArm  -24.1802 -0.0469334 -0.124514
LeftHand  -1.71224 1.05339 30.6566
RightShoulder  -2.48481e-017 0 -8.08114e-019
RightArm  -63.8012 61.9611 -19.3154
RightForeArm  -48.5203 -6.04556 -9.38427
RightHand  9.19359 -23.5341 -40.8236
LeftUpLeg  8.3146 -9.67001 27.8199
LeftLeg  13.3792 2.1847 2.34774
LeftFoot  27.5361 0.477372 -1.04566
LeftToes  -1.45516e-011 5.53925e-011 1.30052e-011
56
root  11.4655 42.1005 -7.41064 -30.8078 -32.2039 147.62
RightUpLeg  -52.7631 -25.0913 -23.3403
RightLeg  15.3228 -0.475396 -2.79786
RightFoot  -1.03631 -0.0241067 0.228648
RightToes  1.74622e-010 -3.18055e-015 8.94531e-016
Spine  45.3822 -6.14759 17.2528
Spine1  -19.215 2.77016 -19.1239
HEad  -37.0435 0.0124996 -0.645732
LeftShoulder1  0 0 -2.47967e-037
LeftArm  -14.9092 -35.6134 25.2715
LeftForeArm  -17.4228 -0.199134 -0.826943
LeftHand  -1.80726 0.768154 30.3041
RightShoulder  -2.48481e-017 0 -8.08114e-019
RightArm  -61.5702 58.6821 -22.2288
RightForeArm  -54.686 -6.29954 -10.4318
RightHand  9.15875 -23.6965 -40.2014
LeftUpLeg  10.7562 -6.34738 28.159
LeftLeg  15.1146 2.85137 3.04102
LeftFoot  26.4782 0.163581 -0.226462
LeftToes  -1.45516e-011 5.53925e-011 1.30052e-011
57
root  13.8147 42.0389 -7.92825 -29.9526 -36.2257 139.424
RightUpLeg  -56.6359 -18.7896 -27.5878
RightLeg  13.3781 -8.48374 -4.56724
RightFoot  -4.56224 0.246988 -3.52761
RightToes  1.74622e-010 -3.18055e-015 8.94531e-016
Spine  48.4489 -6.81738 18.494
Spine1  -18.4163 4.07684 -20.3377
HEad  -36.9457 -2.51879 -1.4136
LeftShoulder1  0 0 -2.47967e-037
LeftArm  -6.26562 -18.5238 17.7224
LeftForeArm  -16.6171 0.179426 0.313746
LeftHand  -1.71178 0.76669 28.8632
RightShoulder  -2.48481e-017 0 -8.08114e-019
RightArm  -56.7641 54.8641 -21.4433
RightForeArm  -61.1368 -6.49496 -11.2008
RightHand  9.09002 -23.9434 -39.186
LeftUpLeg  12.0275 -3.61644 29.2424
LeftLeg  16.3225 1.62122 3.00968
LeftFoot  26.6981 -0.175784 0.710677
LeftToes  -1.45516e-011 5.53925e-011 1.30052e-011
58
root  16.1058 41.5757 -8.288 -27.4269 -39.7851 129.679
RightUpLeg  -60.1295 -13.7341 -33.5817
RightLeg  13.5029 -17.6961 -6.9211
RightFoot  -8.24502 0.429747 -9.73347
RightToes  1.74622e-010 -3.18055e-015 8.94531e-016
Spine  49.9 -7.45045 19.6384
Spine1  -16.9707 5.04988 -20.5571
HEad  -35.3894 -4.65386 -2.49107
LeftShoulder1  0 0 -2.47967e-037
LeftArm  -5.71733 0.698629 11.9837
LeftForeArm  -23.4799 0.563571 3.04335
LeftHand  -0.901795 2.12297 23.6416
RightShoulder  -2.48481e-017 0 -8.08114e-019
RightArm  -52.066 51.1781 -17.668
RightForeArm  -65.9678 -6.71135 -11.9591
RightHand  9.00238 -24.0924 -38.3418
LeftUpLeg  12.0881 -1.80623 30.0807
LeftLeg  17.4451 0.203231 2.8284
LeftFoot  26.3756 -0.195217 0.763718
LeftToes  -1.45516e-011 5.53925e-011 1.30052e-011
59
root  18.3604 40.6668 -8.5523 -23.0989 -43.2636 118.011
RightUpLeg  -63.1365 -11.5389 -36.9877
RightLeg  13.3536 -23.363 -8.17758
RightFoot  -8.74654 0.569407 -14.6256
RightToes  1.74622e-010 -3.18055e-015 8.94531e-016
Spine  50.0941 -7.42123 20.7461
Spine1  -14.6808 6.40674 -19.7345
HEad  -34.1916 -6.95733 -4.85069
LeftShoulder1  0 0 -2.47967e-037
LeftArm  -5.24741 17.6903 6.93909
LeftForeArm  -34.634 -0.528686 4.86353
LeftHand  0.195133 4.57451 16.5388
RightShoulder  -2.48481e-017 0 -8.08114e-019
RightArm  -46.0918 46.7744 -11.2979
RightForeArm  -70.7114 -7.09539 -13.0793
RightHand  8.81399 -23.977 -37.6463
LeftUpLeg  11.3781 -1.00881 30.9659
LeftLeg  18.4674 -0.83365 2.70781
LeftFoot  25.1986 -0.0482305 0.361613
LeftToes  -1.45516e-011 5.53925e-011 1.30052e-011
60
root  20.6241 39.515 -8.67555 -19.3018 -46.3276 101.2
RightUpLeg  -59.809 -9.58476 -34.4662
RightLeg  12.6413 -22.6124 -7.65683
RightFoot  -8.85891 0.571198 -15.0165
RightToes  1.74622e-010 -3.18055e-015 8.94531e-016
Spine  52.5381 -9.33999 24.2903
Spine1  -11.2855 8.01236 -19.6882
HEad  -32.6522 -8.77392 -6.97967
LeftShoulder1  0 0 -2.47967e-037
LeftArm  -1.54829 29.8539 0.627788
LeftForeArm  -43.3069 -0.555881 4.50267
LeftHand  0.719243 6.21122 12.2647
RightShoulder  -2.48481e-017 0 -8.08114e-019
RightArm  -38.2063 39.8987 -3.00392
RightForeArm  -75.6555 -7.32357 -13.9029
RightHand  8.57732 -23.8022 -36.8291
LeftUpLeg  13.4541 -3.17895 34.6113
LeftLeg  19.0361 -1.70423 2.51293
LeftFoot  23.8726 -0.341609 1.24744
LeftToes  -1.45516e-011 5.53925e-011 1.30052e-011
61
root  23.0008 38.3078 -8.76161 -15.1288 -48.371 83.0974
RightUpLeg  -56.2324 -7.89874 -27.4009
RightLeg  17.8463 -17.3921 -9.0353
RightFoot  -13.4459 -0.024617 -12.7468
RightToes  1.74622e-010 -3.18055e-015 8.94531e-016
Spine  55.2698 -11.858 28.2491
Spine1  -8.25343 9.19391 -20.6995
HEad  -29.9066 -8.67241 -8.39798
LeftShoulder1  0 0 -2.47967e-037
LeftArm  0.0924004 38.5321 -8.0389
LeftForeArm  -43.1578 -0.14427 3.33806
LeftHand  0.81399 6.53131 9.77577
RightShoulder  -2.48481e-017 0 -8.08114e-019
RightArm  -31.1034 31.3428 6.3949
RightForeArm  -78.5016 -6.8481 -13.4903
RightHand  8.24488 -23.8406 -34.9509
LeftUpLeg  14.6881 -5.01158 37.4074
LeftLeg  21.3195 -3.34332 2.29636
LeftFoot  20.8723 -0.681532 2.4155
LeftToes  -1.45516e-011 5.53925e-011 1.30052e-011
62
root  25.2739 37.0733 -8.94005 -8.05792 -50.0135 69.8818
RightUpLeg  -61.2984 -7.64159 -19.4616
RightLeg  29.4659 -12.2009 -13.1394
RightFoot  -20.4659 -0.753996 -11.6876
RightToes  1.74622e-010 -3.18055e-015 8.94531e-016
Spine  54.7361 -11.6354 29.6498
Spine1  -7.78851 9.34745 -22.7427
HEad  -27.2957 -6.34042 -10.0216
LeftShoulder1  0 0 -2.47967e-037
LeftArm  -0.907334 44.9259 -18.2239
LeftForeArm  -37.3582 -0.322895 1.97533
LeftHand  0.847185 6.56828 6.30048
RightShoulder  -2.48481e-017 0 -8.08114e-019
RightArm  -26.1089 23.6433 16.1817
RightForeArm  -78.531 -5.5529 -12.2611
RightHand  7.17217 -23.651 -29.4269
LeftUpLeg  9.42788 -0.095002 34.4744
LeftLeg  26.685 -7.28213 1.17785
LeftFoot  15.5373 -0.0698858 0.385689
LeftToes  -1.45516e-011 5.53925e-011 1.30052e-011
63
root  27.167 36.2881 -9.1356 -0.226431 -50.627 58.0629
RightUpLeg  -66.5224 -7.23619 -11.5581
RightLeg  38.7265 -9.68093 -16.6803
RightFoot  -23.9207 -1.13074 -12.015
RightToes  1.74622e-010 -3.18055e-015 8.94531e-016
Spine  54.15 -11.7076 30.5102
Spine1  -8.13936 8.43456 -25.4272
HEad  -26.3414 -3.35451 -11.9346
LeftShoulder1  0 0 -2.47967e-037
LeftArm  -6.80384 48.3169 -32.9577
LeftForeArm  -33.2577 -0.638334 0.621289
LeftHand  1.02075 7.47136 2.5301
RightShoulder  -2.48481e-017 0 -8.08114e-019
RightArm  -23.3348 17.8293 23.8116
RightForeArm  -75.3073 -4.09512 -10.6218
RightHand  4.94652 -21.9205 -19.122
LeftUpLeg  1.49134 9.32143 28.488
LeftLeg  30.9512 -11.5991 -1.03691
LeftFoot  11.2768 1.29133 -5.69757
LeftToes  -1.45516e-011 5.53925e-011 1.30052e-011
64
root  28.7448 36.2661 -9.38123 4.38133 -48.8231 45.6195
RightUpLeg  -63.9446 -8.44559 -4.05493
RightLeg  40.9788 -8.63545 -17.227
RightFoot  -22.7781 -1.04013 -12.3708
RightToes  1.74622e-010 -3.18055e-015 8.94531e-016
Spine  56.1142 -13.8234 31.4532
Spine1  -6.64897 7.32411 -25.7586
HEad  -26.2314 -0.234217 -13.5281
LeftShoulder1  0 0 -2.47967e-037
LeftArm  -15.0918 45.2522 -51.4043
LeftForeArm  -30.0806 -0.408929 -1.61009
LeftHand  1.1651 8.70327 -2.08845
RightShoulder  -2.48481e-017 0 -8.08114e-019
RightArm  -21.8617 13.6795 27.5951
RightForeArm  -67.7444 -0.456731 -8.76586
RightHand  2.71652 -18.1856 -8.56117
LeftUpLeg  -2.64723 18.7202 22.6011
LeftLeg  28.3692 -12.8134 -1.86701
LeftFoot  9.07801 2.82089 -14.0434
LeftToes  -1.45516e-011 5.53925e-011 1.30052e-011
65
root  30.2973 36.6524 -9.73726 5.98407 -44.9064 35.4225
RightUpLeg  -58.0457 -11.9168 1.16909
RightLeg  39.0404 -8.09154 -15.6135
RightFoot  -19.8982 -0.74734 -12.7041
RightToes  1.74622e-010 -3.18055e-015 8.94531e-016
Spine  57.5705 -15.2981 30.5685
Spine1  -3.78871 6.214 -22.7559
HEad  -25.835 4.68553 -15.2144
LeftShoulder1  0 0 -2.47967e-037
LeftArm  -15.5266 37.0647 -64.3054
LeftForeArm  -25.0105 -1.99744 -4.58187
LeftHand  1.14198 9.11522 -7.47259
RightShoulder  -2.48481e-017 0 -8.08114e-019
RightArm  -17.9763 9.66102 31.3736
RightForeArm  -56.8137 5.2641 -7.50421
RightHand  1.72637 -14.7571 -3.86209
LeftUpLeg  -4.33871 28.8462 16.4589
LeftLeg  21.403 -15.5175 -2.86966
LeftFoot  6.23546 3.63821 -20.6306
LeftToes  -1.45516e-011 5.53925e-011 1.30052e-011
66
root  31.9985 36.943 -10.1279 8.13407 -40.3587 27.6201
RightUpLeg  -55.3716 -14.9201 4.60213
RightLeg  37.597 -8.09838 -14.8022
RightFoot  -17.0922 -0.434394 -12.6228
RightToes  1.74622e-010 -3.18055e-015 8.94531e-016
Spine  55.7114 -14.5818 28.3113
Spine1  -1.30319 4.97366 -19.0391
HEad  -24.6632 12.0866 -17.0221
LeftShoulder1  0 0 -2.47967e-037
LeftArm  -7.93676 29.5113 -70.0759
LeftForeArm  -25.4816 -7.34912 -5.49902
LeftHand  1.11787 9.11433 -8.89417
RightShoulder  -2.48481e-017 0 -8.08114e-019
RightArm  -12.9696 6.25123 36.7366
RightForeArm  -42.6853 9.66424 -4.74649
RightHand  1.70011 -13.7896 -5.20898
LeftUpLeg  -8.31136 36.9409 8.86515
LeftLeg  16.4865 -17.9339 -4.32977
LeftFoot  6.10725 4.09583 -23.3576
LeftToes  -1.45516e-011 5.53925e-011 1.30052e-011
